# xmcd
#
# Track frame offsets:
#	150
#	14956
#	29653
#	37758
#	51084
#	69736
#	76862
#	90951
#	101654
#	117694
#	131290
#
# Disc length: 1935 seconds
#
# Revision: 0
# Processed by: cddbd v1.4PL0 Copyright (c) Steve Scherf et al.
# Submitted via: dBpowerAMP V4.0
#
DISCID=8e078d0b
DTITLE=Hickory Hill - Thank You Lord
DYEAR=2000
DGENRE=Bluegrass
TTITLE0=Shouting On The Hills Of Glory
TTITLE1=Lost And Found
TTITLE2=The Rock
TTITLE3=Sinner Man Where You Gonna Run
TTITLE4=One Beautiful Day
TTITLE5=The Bells Of St Mary's
TTITLE6=Red Roses
TTITLE7=Old Time Feeling
TTITLE8=Thank You Lord
TTITLE9=Sharecropper's Prayer
TTITLE10=The Salvation Of John Harlow
EXTD=Produced by Hickory Hill\nArtists:  \nJohn Early - Guitar, Vocals\nDon Eaves - Banjo, Vocals\nJimmy Godwin - Guitar, Fiddle, Vocals\nRonny Singley - Mandolin, Vocals\nBob Stegall, Bass, Vocals\nRecorded at Ironside Music Studios, Avinger, TX\nEngin
EXTD=eered by Bob Milsap\nMixed by Bob Milsap and John Early\nCopyright 2000 by Hickory Hill Records\nContact and Bookings:\nHickory Hill, PO Box 278\nAvinger, TX  75630\n(903) 562-1255\nemail:  hickoryhillband@tyler.net\nWriters:\nTrack 1 - Connie M. G
EXTD=ately, Jr., BMI\nTrack 2 - Jimmy Godwin, BMI\nTrack 3 - Jimmy Godwin and John Early, BMI\nTrack 4 - James O. Huey, BMI\nTrack 5 - R.C. Amos, BMI\nTrack 6 - Emmett Adams, PD (instrumental]\nTrack 7 - Jimmy Godwin, BMI\nTrack 8 - Jimmy Godwin, BMI\nTra
EXTD=ck 9 - Lary Sparks and Judy Marshall, BMI\nTrack 10 - John Early, BMI\nTrack 11 - Jimmy Godwin, BMI
EXTT0=
EXTT1=
EXTT2=
EXTT3=
EXTT4=
EXTT5=
EXTT6=
EXTT7=
EXTT8=
EXTT9=
EXTT10=
PLAYORDER=
